# xmcd
#
# Track frame offsets: 
#        150
#        13482
#        32115
#        46032
#        59427
#        73045
#        104262
#        130612
#        160025
#        183827
#        200107
#        221205
#        235017
#        255702
#        282090
#
# Disc length: 4275 seconds
#
# Revision: 3
# Processed by: cddbd v1.5.2PL0 Copyright (c) Steve Scherf et al.
# Submitted via: ExactAudioCopy v0.99pb4
#
DISCID=d810b10f
DTITLE=Chet Baker - The Best Of Chet Baker [Jazz Hall of Fame]
DYEAR=2004
DGENRE=Jazz
TTITLE0=My Funny Valentine
TTITLE1=Moonlight In Vermont
TTITLE2=The More I See You
TTITLE3=Old Devil Moon
TTITLE4=Do It The Hard Way
TTITLE5=Fair Weather
TTITLE6=Solar
TTITLE7=Soft Winds
TTITLE8=If You Could See Me Now
TTITLE9=How High The Moon
TTITLE10=It Never Entered My Mind
TTITLE11=September Song
TTITLE12=Thank Heaven For Little Girls
TTITLE13=I Talk To The Trees
TTITLE14=On The Street Where You Live
EXTD=YEAR: 2004
EXTT0=
EXTT1=
EXTT2=
EXTT3=
EXTT4=
EXTT5=
EXTT6=
EXTT7=
EXTT8=
EXTT9=
EXTT10=
EXTT11=
EXTT12=
EXTT13=
EXTT14=
PLAYORDER=
